<?xml version="1.0" standalone="no"?>
<!DOCTYPE svg PUBLIC "-//W3C//DTD SVG 20010904//EN" "http://www.w3.org/TR/2001/REC-SVG-20010904/DTD/svg10.dtd">
<svg version="1.0" xmlns="http://www.w3.org/2000/svg"
  width="255.000000pt" height="139.000000pt" viewBox="0 0 255.000000 139.000000"
  preserveAspectRatio="xMidYMid meet">

  <g transform="translate(0.000000,139.000000) scale(0.100000,-0.100000)"
    fill="#000000" stroke="none">
    <path
      d="M102 1369 c-26 -13 -55 -39 -70 -62 l-27 -41 -3 -559 c-2 -555 -2
-560 19 -604 13 -27 37 -55 62 -71 40 -27 43 -27 241 -30 217 -4 255 2 306 44
40 34 57 69 66 132 l7 52 572 0 572 0 7 -52 c9 -63 26 -98 66 -132 51 -42 89
-48 306 -44 198 3 201 3 241 30 25 16 49 44 62 71 21 44 21 49 19 604 l-3 559
-27 41 c-16 24 -44 49 -70 62 l-44 21 -1130 0 -1129 0 -43 -21z m2218 -674 l0
-465 -115 0 -115 0 0 115 0 115 -100 0 -100 0 0 45 c0 45 0 45 -35 45 -35 0
-35 0 -35 -45 l0 -45 -80 0 -80 0 0 45 c0 45 0 45 -34 45 -34 0 -35 -1 -38
-42 l-3 -43 -80 0 -80 0 -3 43 c-3 42 -4 43 -35 40 -30 -3 -32 -6 -35 -45 l-3
-43 -80 0 -79 0 0 45 c0 45 0 45 -35 45 -35 0 -35 0 -35 -45 l0 -45 -80 0 -80
0 0 45 c0 45 0 45 -35 45 -35 0 -35 0 -35 -45 l0 -45 -80 0 -80 0 0 46 c0 45
0 45 -32 42 -31 -3 -33 -6 -36 -45 l-3 -43 -100 0 -99 0 0 -115 0 -115 -115 0
-115 0 0 465 0 465 1045 0 1045 0 0 -465z" />
    <path
      d="M744 1066 c-78 -34 -114 -138 -75 -218 52 -108 184 -127 264 -39 120
133 -25 328 -189 257z" />
    <path
      d="M1658 1060 c-93 -50 -111 -179 -34 -256 105 -105 276 -32 276 119 0
52 -28 100 -79 134 -43 29 -111 30 -163 3z" />
  </g>
</svg>